<?xml version="1.0" encoding="utf-8"?>
<!-- Generator: Adobe Illustrator 24.0.3, SVG Export Plug-In . SVG Version: 6.00 Build 0)  -->
<svg class="geolonia-svg-map" viewBox="0 0 1000 1000" xmlns="http://www.w3.org/2000/svg">
	<title>Japanese Prefectures</title>
	<desc>Created by Geolonia (https://geolonia.com/).</desc>
	<g class="svg-map">
		<g class="prefectures">
			<g id="_x34_7">
				<g>
					<path d="M144.9,456.4c-4.4,0-8,3.6-8,8v71.2c0,4.4,3.6,8,8,8h25.6c4.4,0,8-3.6,8-8v-71.2c0-4.4-3.6-8-8-8H144.9z"/>
				</g>
			</g>
			<g id="_x34_6">
				<path d="M99.3,912.7c-4.4,0-8,3.6-8,8V992c0,4.4,3.6,8,8,8h116.8c4.4,0,8-3.6,8-8v-71.2c0-4.4-3.6-8-8-8H99.3z"/>
			</g>
			<g id="_x34_5">
				<path d="M167.8,821.5c-4.4,0-8,3.6-8,8v71.2c0,4.4,3.6,8,8,8h48.4c4.4,0,8-3.6,8-8v-71.2c0-4.4-3.6-8-8-8H167.8z"/>
			</g>
			<g id="_x34_4">
				<path d="M167.8,730.2c-4.4,0-8,3.6-8,8v71.2c0,4.4,3.6,8,8,8h48.4c4.4,0,8-3.6,8-8v-71.2c0-4.4-3.6-8-8-8H167.8z"/>
			</g>
			<g id="_x34_3">
				<path d="M99.3,730.2c-4.4,0-8,3.6-8,8v162.5c0,4.4,3.6,8,8,8h48.4c4.4,0,8-3.6,8-8V738.2c0-4.4-3.6-8-8-8H99.3z"/>
			</g>
			<g id="_x34_2">
				<path d="M8,638.9c-4.4,0-8,3.6-8,8v94c0,4.4,3.6,8,8,8h25.6c4.4,0,8-3.6,8-8v-94c0-4.4-3.6-8-8-8H8z"/>
			</g>
			<g id="_x34_1">
				<path d="M53.7,638.9c-4.4,0-8,3.6-8,8v94c0,4.4,3.6,8,8,8h25.6c4.4,0,8-3.6,8-8v-94c0-4.4-3.6-8-8-8H53.7z"/>
			</g>
			<g id="_x34_0">
				<path d="M99.3,638.9c-4.4,0-8,3.6-8,8v71.2c0,4.4,3.6,8,8,8h116.8c4.4,0,8-3.6,8-8V647c0-4.4-3.6-8-8-8H99.3z"/>
			</g>
			<g id="_x33_9">
				<path d="M281.9,935.6c-4.4,0-8,3.6-8,8V992c0,4.4,3.6,8,8,8H353c4.4,0,8-3.6,8-8v-48.4c0-4.4-3.6-8-8-8H281.9z"/>
			</g>
			<g id="_x33_8">
				<path d="M281.9,867.1c-4.4,0-8,3.6-8,8v48.4c0,4.4,3.6,8,8,8H353c4.4,0,8-3.6,8-8v-48.4c0-4.4-3.6-8-8-8H281.9z"/>
			</g>
			<g id="_x33_7">
				<path d="M373.1,867.1c-4.4,0-8,3.6-8,8v48.4c0,4.4,3.6,8,8,8h71.2c4.4,0,8-3.6,8-8v-48.4c0-4.4-3.6-8-8-8H373.1z"/>
			</g>
			<g id="_x33_6">
				<path d="M373.1,935.6c-4.4,0-8,3.6-8,8V992c0,4.4,3.6,8,8,8h71.2c4.4,0,8-3.6,8-8v-48.4c0-4.4-3.6-8-8-8H373.1z"/>
			</g>
			<g id="_x33_5">
				<path d="M281.9,638.9c-4.4,0-8,3.6-8,8v162.5c0,4.4,3.6,8,8,8h25.6c4.4,0,8-3.6,8-8V647c0-4.4-3.6-8-8-8H281.9z"/>
			</g>
			<g id="_x33_4">
				<path d="M327.5,730.2c-4.4,0-8,3.6-8,8v71.2c0,4.4,3.6,8,8,8h48.4c4.4,0,8-3.6,8-8v-71.2c0-4.4-3.6-8-8-8H327.5z"/>
			</g>
			<g id="_x33_3">
				<path d="M395.9,730.2c-4.4,0-8,3.6-8,8v71.2c0,4.4,3.6,8,8,8h25.6c4.4,0,8-3.6,8-8v-71.2c0-4.4-3.6-8-8-8H395.9z"/>
			</g>
			<g id="_x33_2">
				<path d="M327.5,638.9c-4.4,0-8,3.6-8,8v71.2c0,4.4,3.6,8,8,8h48.4c4.4,0,8-3.6,8-8V647c0-4.4-3.6-8-8-8H327.5z"/>
			</g>
			<g id="_x33_1">
				<path d="M395.9,638.9c-4.4,0-8,3.6-8,8v71.2c0,4.4,3.6,8,8,8h25.6c4.4,0,8-3.6,8-8V647c0-4.4-3.6-8-8-8H395.9z"/>
			</g>
			<g id="_x33_0">
				<path d="M510,958.4c-4.4,0-8,3.6-8,8V992c0,4.4,3.6,8,8,8h71.2c4.4,0,8-3.6,8-8v-25.6c0-4.4-3.6-8-8-8H510z"/>
			</g>
			<g id="_x32_9">
				<path d="M555.7,775.8c-4.4,0-8,3.6-8,8v162.5c0,4.4,3.6,8,8,8h25.6c4.4,0,8-3.6,8-8V783.9c0-4.4-3.6-8-8-8H555.7z"/>
			</g>
			<g id="_x32_8">
				<path d="M441.6,638.9c-4.4,0-8,3.6-8,8v162.5c0,4.4,3.6,8,8,8H490c4.4,0,8-3.6,8-8V647c0-4.4-3.6-8-8-8H441.6z"/>
			</g>
			<g id="_x32_7">
				<path d="M510,775.8c-4.4,0-8,3.6-8,8v162.5c0,4.4,3.6,8,8,8h25.6c4.4,0,8-3.6,8-8V783.9c0-4.4-3.6-8-8-8H510z"/>
			</g>
			<g id="_x32_6">
				<path d="M510,638.9c-4.4,0-8,3.6-8,8v116.8c0,4.4,3.6,8,8,8h71.2c4.4,0,8-3.6,8-8v-71.2c0-4.4-3.6-8-8-8h-25.6c-6.6,0-12-5.4-12-12
					V647c0-4.4-3.6-8-8-8H510z"/>
			</g>
			<g id="_x32_5">
				<path d="M601.3,684.6c-4.4,0-8,3.6-8,8v71.2c0,4.4,3.6,8,8,8h25.6c4.4,0,8-3.6,8-8v-71.2c0-4.4-3.6-8-8-8H601.3z"/>
			</g>
			<g id="_x32_4">
				<path d="M601.3,775.8c-4.4,0-8,3.6-8,8V992c0,4.4,3.6,8,8,8h25.6c4.4,0,8-3.6,8-8V783.9c0-4.4-3.6-8-8-8H601.3z"/>
			</g>
			<g id="_x32_3">
				<path d="M647,867.1c-4.4,0-8,3.6-8,8v71.2c0,4.4,3.6,8,8,8h71.2c4.4,0,8-3.6,8-8v-71.2c0-4.4-3.6-8-8-8H647z"/>
			</g>
			<g id="_x32_2">
				<path d="M738.2,867.1c-4.4,0-8,3.6-8,8v71.2c0,4.4,3.6,8,8,8h71.2c4.4,0,8-3.6,8-8v-71.2c0-4.4-3.6-8-8-8H738.2z"/>
			</g>
			<g id="_x32_1">
				<path d="M647,593.3c-4.4,0-8,3.6-8,8v253.7c0,4.4,3.6,8,8,8h48.4c4.4,0,8-3.6,8-8V601.3c0-4.4-3.6-8-8-8H647z"/>
			</g>
			<g id="_x32_0">
				<path d="M715.4,593.3c-4.4,0-8,3.6-8,8v253.7c0,4.4,3.6,8,8,8H741c4.4,0,8-3.6,8-8v-71.2c0-6.6,5.4-12,12-12h2.7c4.4,0,8-3.6,8-8
					V601.3c0-4.4-3.6-8-8-8H715.4z"/>
			</g>
			<g id="_x31_9">
				<path d="M761,775.8c-4.4,0-8,3.6-8,8v71.2c0,4.4,3.6,8,8,8h48.4c4.4,0,8-3.6,8-8v-71.2c0-4.4-3.6-8-8-8H761z"/>
			</g>
			<g id="_x31_8">
				<path d="M555.7,638.9c-4.4,0-8,3.6-8,8v25.6c0,4.4,3.6,8,8,8h71.2c4.4,0,8-3.6,8-8v-71.2c0-4.4-3.6-8-8-8h-25.6c-4.4,0-8,3.6-8,8
					v25.6c0,6.6-5.4,12-12,12H555.7z"/>
			</g>
			<g id="_x31_7">
				<path d="M601.3,433.6c-4.4,0-8,3.6-8,8v139.6c0,4.4,3.6,8,8,8h25.6c4.4,0,8-3.6,8-8V441.6c0-4.4-3.6-8-8-8H601.3z"/>
			</g>
			<g id="_x31_6">
				<path d="M647,502c-4.4,0-8,3.6-8,8v71.2c0,4.4,3.6,8,8,8h71.2c4.4,0,8-3.6,8-8V510c0-4.4-3.6-8-8-8H647z"/>
			</g>
			<g id="_x31_5">
				<path d="M738.2,502c-4.4,0-8,3.6-8,8v71.2c0,4.4,3.6,8,8,8h71.2c4.4,0,8-3.6,8-8V464.4c0-4.4-3.6-8-8-8h-25.6c-4.4,0-8,3.6-8,8V490
					c0,6.6-5.4,12-12,12H738.2z"/>
			</g>
			<g id="_x31_4">
				<path d="M829.5,867.1c-4.4,0-8,3.6-8,8v48.4c0,4.4,3.6,8,8,8h48.4c4.4,0,8-3.6,8-8v-48.4c0-4.4-3.6-8-8-8H829.5z"/>
			</g>
			<g id="_x31_3">
				<path d="M829.5,775.8c-4.4,0-8,3.6-8,8v71.2c0,4.4,3.6,8,8,8h48.4c4.4,0,8-3.6,8-8v-2.7c0-6.6,5.4-12,12-12h25.6c4.4,0,8-3.6,8-8
					v-48.4c0-4.4-3.6-8-8-8H829.5z"/>
			</g>
			<g id="_x31_2">
				<path d="M943.6,730.2c-4.4,0-8,3.6-8,8v208.1c0,4.4,3.6,8,8,8H992c4.4,0,8-3.6,8-8V738.2c0-4.4-3.6-8-8-8H943.6z"/>
			</g>
			<g id="_x31_1">
				<path d="M783.9,684.6c-4.4,0-8,3.6-8,8v71.2c0,4.4,3.6,8,8,8h139.6c4.4,0,8-3.6,8-8v-71.2c0-4.4-3.6-8-8-8H783.9z"/>
			</g>
			<g id="_x31_0">
				<path d="M783.9,593.3c-4.4,0-8,3.6-8,8v71.2c0,4.4,3.6,8,8,8H848c1.5,0,3.7-3.1,3.7-8v-71.2c0-4.9-2.2-8-3.7-8H783.9z"/>
			</g>
			<g id="_x30_9">
				<path d="M859.4,593.3c-1.5,0-3.7,3.1-3.7,8v71.2c0,4.9,2.2,8,3.7,8h64.1c4.4,0,8-3.6,8-8v-71.2c0-4.4-3.6-8-8-8H859.4z"/>
			</g>
			<g id="_x30_8">
				<path d="M943.6,593.3c-4.4,0-8,3.6-8,8v116.8c0,4.4,3.6,8,8,8H992c4.4,0,8-3.6,8-8V601.3c0-4.4-3.6-8-8-8H943.6z"/>
			</g>
			<g id="_x30_7">
				<path d="M829.5,456.4c-4.4,0-8,3.6-8,8v116.8c0,4.4,3.6,8,8,8H992c4.4,0,8-3.6,8-8V464.4c0-4.4-3.6-8-8-8H829.5z"/>
			</g>
			<g id="_x30_6">
				<path d="M783.9,387.9c-4.4,0-8,3.6-8,8v48.4c0,4.4,3.6,8,8,8h94c4.4,0,8-3.6,8-8v-48.4c0-4.4-3.6-8-8-8H783.9z"/>
			</g>
			<g id="_x30_5">
				<path d="M783.9,296.6c-4.4,0-8,3.6-8,8v71.2c0,4.4,3.6,8,8,8h94c4.4,0,8-3.6,8-8v-71.2c0-4.4-3.6-8-8-8H783.9z"/>
			</g>
			<g id="_x30_4">
				<path d="M898,387.9c-4.4,0-8,3.6-8,8v48.4c0,4.4,3.6,8,8,8h94c4.4,0,8-3.6,8-8v-48.4c0-4.4-3.6-8-8-8H898z"/>
			</g>
			<g id="_x30_3">
				<path d="M898,296.6c-4.4,0-8,3.6-8,8v71.2c0,4.4,3.6,8,8,8h94c4.4,0,8-3.6,8-8v-71.2c0-4.4-3.6-8-8-8H898z"/>
			</g>
			<g id="_x30_2">
				<path d="M783.9,228.2c-4.4,0-8,3.6-8,8v48.4c0,4.4,3.6,8,8,8H992c4.4,0,8-3.6,8-8v-48.4c0-4.4-3.6-8-8-8H783.9z"/>
			</g>
			<g id="_x30_1">
				<path d="M783.9,0c-4.4,0-8,3.6-8,8v185.3c0,4.4,3.6,8,8,8h48.4c4.4,0,8-3.6,8-8v-25.6c0-6.6,5.4-12,12-12H992c4.4,0,8-3.6,8-8V8
					c0-4.4-3.6-8-8-8H783.9z"/>
			</g>
		</g>
		<g class="boundary-line" stroke="#EEEEEE" stroke-width="12" stroke-linejoin="round" style="">
			<path d="M216.1,593.3H89.3c-1.1,0-2-0.9-2-2s0.9-2,2-2h126.9c4.4,0,8-3.6,8-8V454.4c0-1.1,0.9-2,2-2s2,0.9,2,2v126.9
				C228.2,587.9,222.8,593.3,216.1,593.3z"/>
		</g>
	</g>
</svg>
